<svg width="24" height="17" viewBox="0 0 24 17" fill="none" xmlns="http://www.w3.org/2000/svg">
<path d="M24 8.50008C24 7.67151 23.5767 7 23.0546 7H5.94544C5.42332 7 5 7.67151 5 8.50008C5 9.32849 5.42332 10 5.94544 10H23.0546C23.5767 10 24 9.32849 24 8.50008Z" fill="white"/>
<path d="M24 1.50008C24 0.671507 23.4653 0 22.8058 0H1.19424C0.534718 0 -9.53674e-07 0.671507 -9.53674e-07 1.50008C-9.53674e-07 2.32849 0.534718 3 1.19424 3H22.8058C23.4653 3 24 2.32849 24 1.50008Z" fill="white"/>
<path d="M24 15.5001C24 14.6715 23.4653 14 22.8058 14H1.19424C0.534718 14 -9.53674e-07 14.6715 -9.53674e-07 15.5001C-9.53674e-07 16.3285 0.534718 17 1.19424 17H22.8058C23.4653 17 24 16.3285 24 15.5001Z" fill="white"/>
</svg>
